<svg xmlns="http://www.w3.org/2000/svg" viewBox="0 0 1200 630" width="1200" height="630">
<rect width="1200" height="630" fill="#0B0D0E"/>
<defs>
  <pattern id="lat32" patternUnits="userSpaceOnUse" width="32" height="32">
    <path d="M 32 0 L 0 0 0 32" stroke="#8E8A82" stroke-width="0.5" fill="none" opacity="0.15"/>
  </pattern>
  <pattern id="lat8" patternUnits="userSpaceOnUse" width="8" height="8">
    <path d="M 8 0 L 0 0 0 8" stroke="#8E8A82" stroke-width="0.3" fill="none" opacity="0.08"/>
  </pattern>
</defs>
<rect width="1200" height="630" fill="url(#lat8)"/>
<rect width="1200" height="630" fill="url(#lat32)"/>
<circle cx="551.0" cy="335.3" r="1.6" fill="#E6E1D6" opacity="0.5"/>
<circle cx="548.6" cy="370.2" r="1.6" fill="#E6E1D6" opacity="0.5"/>
<circle cx="573.8" cy="302.5" r="1.6" fill="#E6E1D6" opacity="0.5"/>
<circle cx="492.4" cy="341.8" r="1.6" fill="#E6E1D6" opacity="0.5"/>
<circle cx="564.7" cy="263.0" r="1.6" fill="#E6E1D6" opacity="0.5"/>
<circle cx="614.8" cy="303.0" r="1.6" fill="#E6E1D6" opacity="0.5"/>
<circle cx="488.6" cy="393.1" r="1.6" fill="#E6E1D6" opacity="0.5"/>
<circle cx="582.8" cy="380.8" r="1.6" fill="#E6E1D6" opacity="0.5"/>
<circle cx="529.1" cy="299.4" r="1.6" fill="#E6E1D6" opacity="0.5"/>
<circle cx="591.8" cy="347.5" r="1.6" fill="#E6E1D6" opacity="0.5"/>
<circle cx="446.1" cy="409.0" r="1.6" fill="#E6E1D6" opacity="0.5"/>
<circle cx="501.9" cy="255.5" r="1.6" fill="#E6E1D6" opacity="0.5"/>
<circle cx="573.1" cy="427.2" r="1.6" fill="#E6E1D6" opacity="0.5"/>
<circle cx="625.7" cy="379.6" r="1.6" fill="#E6E1D6" opacity="0.5"/>
<circle cx="524.1" cy="407.7" r="1.6" fill="#E6E1D6" opacity="0.5"/>
<circle cx="652.2" cy="328.1" r="1.6" fill="#E6E1D6" opacity="0.5"/>
<circle cx="541.9" cy="443.6" r="1.6" fill="#E6E1D6" opacity="0.5"/>
<circle cx="603.9" cy="413.5" r="1.6" fill="#E6E1D6" opacity="0.5"/>
<circle cx="388.2" cy="389.4" r="1.6" fill="#E6E1D6" opacity="0.5"/>
<circle cx="548.1" cy="486.1" r="1.6" fill="#E6E1D6" opacity="0.5"/>
<circle cx="464.2" cy="291.9" r="1.6" fill="#E6E1D6" opacity="0.5"/>
<circle cx="590.5" cy="463.1" r="1.6" fill="#E6E1D6" opacity="0.5"/>
<circle cx="680.6" cy="293.6" r="1.6" fill="#E6E1D6" opacity="0.5"/>
<circle cx="488.2" cy="436.5" r="1.6" fill="#E6E1D6" opacity="0.5"/>
<circle cx="435.5" cy="466.9" r="1.6" fill="#E6E1D6" opacity="0.5"/>
<circle cx="391.9" cy="481.3" r="1.6" fill="#E6E1D6" opacity="0.5"/>
<circle cx="560.9" cy="516.9" r="3" fill="#F3A03B" opacity="0.9"/>
<circle cx="686.4" cy="351.5" r="1.6" fill="#E6E1D6" opacity="0.5"/>
<circle cx="359.3" cy="411.2" r="1.6" fill="#E6E1D6" opacity="0.5"/>
<circle cx="491.5" cy="517.2" r="1.6" fill="#E6E1D6" opacity="0.5"/>
<circle cx="507.2" cy="214.9" r="1.6" fill="#E6E1D6" opacity="0.5"/>
<circle cx="440.3" cy="352.1" r="1.6" fill="#E6E1D6" opacity="0.5"/>
<circle cx="436.6" cy="318.9" r="1.6" fill="#E6E1D6" opacity="0.5"/>
<circle cx="399.5" cy="316.2" r="1.6" fill="#E6E1D6" opacity="0.5"/>
<circle cx="614.2" cy="501.3" r="1.6" fill="#E6E1D6" opacity="0.5"/>
<circle cx="530.5" cy="570.0" r="1.6" fill="#E6E1D6" opacity="0.5"/>
<circle cx="664.7" cy="430.3" r="1.6" fill="#E6E1D6" opacity="0.5"/>
<circle cx="489.5" cy="617.9" r="1.6" fill="#E6E1D6" opacity="0.5"/>
<circle cx="613.5" cy="255.1" r="1.6" fill="#E6E1D6" opacity="0.5"/>
<circle cx="506.4" cy="468.6" r="1.6" fill="#E6E1D6" opacity="0.5"/>
<circle cx="525.1" cy="525.1" r="1.6" fill="#E6E1D6" opacity="0.5"/>
<circle cx="654.0" cy="203.5" r="1.6" fill="#E6E1D6" opacity="0.5"/>
<circle cx="694.8" cy="248.7" r="1.6" fill="#E6E1D6" opacity="0.5"/>
<circle cx="643.0" cy="151.6" r="1.6" fill="#E6E1D6" opacity="0.5"/>
<circle cx="578.0" cy="220.0" r="1.6" fill="#E6E1D6" opacity="0.5"/>
<circle cx="377.4" cy="343.4" r="1.6" fill="#E6E1D6" opacity="0.5"/>
<circle cx="627.7" cy="455.7" r="1.6" fill="#E6E1D6" opacity="0.5"/>
<circle cx="407.1" cy="433.0" r="1.6" fill="#E6E1D6" opacity="0.5"/>
<circle cx="459.4" cy="234.0" r="1.6" fill="#E6E1D6" opacity="0.5"/>
<circle cx="480.3" cy="195.1" r="1.6" fill="#E6E1D6" opacity="0.5"/>
<circle cx="542.7" cy="607.8" r="3" fill="#F3A03B" opacity="0.9"/>
<circle cx="478.6" cy="569.3" r="1.6" fill="#E6E1D6" opacity="0.5"/>
<circle cx="324.3" cy="377.3" r="1.6" fill="#E6E1D6" opacity="0.5"/>
<circle cx="740.0" cy="269.1" r="1.6" fill="#E6E1D6" opacity="0.5"/>
<circle cx="444.6" cy="515.0" r="1.6" fill="#E6E1D6" opacity="0.5"/>
<circle cx="403.4" cy="534.1" r="1.6" fill="#E6E1D6" opacity="0.5"/>
<circle cx="431.0" cy="186.4" r="1.6" fill="#E6E1D6" opacity="0.5"/>
<circle cx="419.3" cy="277.5" r="1.6" fill="#E6E1D6" opacity="0.5"/>
<circle cx="713.3" cy="312.0" r="1.6" fill="#E6E1D6" opacity="0.5"/>
<circle cx="391.3" cy="188.3" r="1.6" fill="#E6E1D6" opacity="0.5"/>
<circle cx="336.3" cy="176.3" r="1.6" fill="#E6E1D6" opacity="0.5"/>
<circle cx="771.9" cy="280.5" r="1.6" fill="#E6E1D6" opacity="0.5"/>
<circle cx="744.8" cy="223.2" r="1.6" fill="#E6E1D6" opacity="0.5"/>
<circle cx="353.3" cy="297.0" r="1.6" fill="#E6E1D6" opacity="0.5"/>
<circle cx="688.0" cy="116.1" r="1.6" fill="#E6E1D6" opacity="0.5"/>
<circle cx="306.6" cy="273.9" r="1.6" fill="#E6E1D6" opacity="0.5"/>
<circle cx="360.2" cy="516.1" r="1.6" fill="#E6E1D6" opacity="0.5"/>
<circle cx="785.3" cy="241.3" r="3" fill="#F3A03B" opacity="0.9"/>
<circle cx="317.6" cy="332.7" r="1.6" fill="#E6E1D6" opacity="0.5"/>
<circle cx="631.1" cy="113.0" r="1.6" fill="#E6E1D6" opacity="0.5"/>
<circle cx="542.2" cy="227.1" r="1.6" fill="#E6E1D6" opacity="0.5"/>
<circle cx="607.2" cy="538.7" r="1.6" fill="#E6E1D6" opacity="0.5"/>
<circle cx="642.2" cy="274.7" r="1.6" fill="#E6E1D6" opacity="0.5"/>
<circle cx="510.3" cy="165.5" r="1.6" fill="#E6E1D6" opacity="0.5"/>
<circle cx="613.0" cy="217.8" r="1.6" fill="#E6E1D6" opacity="0.5"/>
<circle cx="445.7" cy="549.3" r="1.6" fill="#E6E1D6" opacity="0.5"/>
<circle cx="718.5" cy="465.0" r="1.6" fill="#E6E1D6" opacity="0.5"/>
<circle cx="283.1" cy="327.2" r="1.6" fill="#E6E1D6" opacity="0.5"/>
<circle cx="266.0" cy="402.0" r="1.6" fill="#E6E1D6" opacity="0.5"/>
<circle cx="220.7" cy="409.3" r="1.6" fill="#E6E1D6" opacity="0.5"/>
<circle cx="751.4" cy="432.6" r="1.6" fill="#E6E1D6" opacity="0.5"/>
<circle cx="681.8" cy="71.4" r="1.6" fill="#E6E1D6" opacity="0.5"/>
<circle cx="381.5" cy="257.6" r="1.6" fill="#E6E1D6" opacity="0.5"/>
<circle cx="655.2" cy="542.0" r="1.6" fill="#E6E1D6" opacity="0.5"/>
<circle cx="576.7" cy="87.7" r="3" fill="#F3A03B" opacity="0.9"/>
<circle cx="697.9" cy="199.0" r="1.6" fill="#E6E1D6" opacity="0.5"/>
<circle cx="573.4" cy="51.5" r="1.6" fill="#E6E1D6" opacity="0.5"/>
<circle cx="754.3" cy="355.1" r="1.6" fill="#E6E1D6" opacity="0.5"/>
<circle cx="576.5" cy="593.2" r="1.6" fill="#E6E1D6" opacity="0.5"/>
<circle cx="606.8" cy="171.8" r="1.6" fill="#E6E1D6" opacity="0.5"/>
<circle cx="532.9" cy="49.2" r="1.6" fill="#E6E1D6" opacity="0.5"/>
<circle cx="474.4" cy="477.8" r="1.6" fill="#E6E1D6" opacity="0.5"/>
<circle cx="515.1" cy="372.8" r="1.6" fill="#E6E1D6" opacity="0.5"/>
<circle cx="596.5" cy="22.2" r="1.6" fill="#E6E1D6" opacity="0.5"/>
<circle cx="365.6" cy="451.7" r="3" fill="#F3A03B" opacity="0.9"/>
<circle cx="709.7" cy="164.6" r="1.6" fill="#E6E1D6" opacity="0.5"/>
<circle cx="222.7" cy="353.4" r="1.6" fill="#E6E1D6" opacity="0.5"/>
<circle cx="562.0" cy="170.9" r="1.6" fill="#E6E1D6" opacity="0.5"/>
<circle cx="763.2" cy="135.9" r="1.6" fill="#E6E1D6" opacity="0.5"/>
<circle cx="323.4" cy="541.2" r="1.6" fill="#E6E1D6" opacity="0.5"/>
<circle cx="411.8" cy="596.4" r="1.6" fill="#E6E1D6" opacity="0.5"/>
<circle cx="196.5" cy="446.3" r="1.6" fill="#E6E1D6" opacity="0.5"/>
<circle cx="790.7" cy="396.1" r="1.6" fill="#E6E1D6" opacity="0.5"/>
<circle cx="760.8" cy="174.6" r="1.6" fill="#E6E1D6" opacity="0.5"/>
<circle cx="172.5" cy="384.3" r="1.6" fill="#E6E1D6" opacity="0.5"/>
<circle cx="726.1" cy="110.3" r="1.6" fill="#E6E1D6" opacity="0.5"/>
<circle cx="449.4" cy="594.0" r="1.6" fill="#E6E1D6" opacity="0.5"/>
<circle cx="469.1" cy="158.6" r="1.6" fill="#E6E1D6" opacity="0.5"/>
<circle cx="824.4" cy="160.1" r="1.6" fill="#E6E1D6" opacity="0.5"/>
<circle cx="817.5" cy="201.7" r="1.6" fill="#E6E1D6" opacity="0.5"/>
<circle cx="752.9" cy="492.3" r="1.6" fill="#E6E1D6" opacity="0.5"/>
<circle cx="664.5" cy="479.0" r="1.6" fill="#E6E1D6" opacity="0.5"/>
<circle cx="869.9" cy="226.1" r="1.6" fill="#E6E1D6" opacity="0.5"/>
<circle cx="826.4" cy="235.9" r="1.6" fill="#E6E1D6" opacity="0.5"/>
<circle cx="794.5" cy="325.3" r="1.6" fill="#E6E1D6" opacity="0.5"/>
<circle cx="737.8" cy="383.9" r="1.6" fill="#E6E1D6" opacity="0.5"/>
<circle cx="587.2" cy="120.1" r="1.6" fill="#E6E1D6" opacity="0.5"/>
<circle cx="660.4" cy="243.0" r="1.6" fill="#E6E1D6" opacity="0.5"/>
<circle cx="818.9" cy="435.0" r="1.6" fill="#E6E1D6" opacity="0.5"/>
<circle cx="539.6" cy="125.2" r="1.6" fill="#E6E1D6" opacity="0.5"/>
<circle cx="272.5" cy="286.4" r="1.6" fill="#E6E1D6" opacity="0.5"/>
<circle cx="519.0" cy="93.2" r="1.6" fill="#E6E1D6" opacity="0.5"/>
<circle cx="161.2" cy="436.9" r="1.6" fill="#E6E1D6" opacity="0.5"/>
<circle cx="210.4" cy="314.5" r="1.6" fill="#E6E1D6" opacity="0.5"/>
<circle cx="815.1" cy="493.9" r="1.6" fill="#E6E1D6" opacity="0.5"/>
<circle cx="621.4" cy="588.1" r="1.6" fill="#E6E1D6" opacity="0.5"/>
<circle cx="305.1" cy="417.3" r="1.6" fill="#E6E1D6" opacity="0.5"/>
<circle cx="372.2" cy="150.7" r="1.6" fill="#E6E1D6" opacity="0.5"/>
<circle cx="270.8" cy="362.4" r="1.6" fill="#E6E1D6" opacity="0.5"/>
<circle cx="706.2" cy="427.6" r="1.6" fill="#E6E1D6" opacity="0.5"/>
<circle cx="363.6" cy="578.3" r="3" fill="#F3A03B" opacity="0.9"/>
<circle cx="631.1" cy="48.1" r="1.6" fill="#E6E1D6" opacity="0.5"/>
<circle cx="789.9" cy="105.6" r="1.6" fill="#E6E1D6" opacity="0.5"/>
<circle cx="681.6" cy="387.1" r="1.6" fill="#E6E1D6" opacity="0.5"/>
<circle cx="576.5" cy="556.0" r="1.6" fill="#E6E1D6" opacity="0.5"/>
<circle cx="168.5" cy="309.7" r="3" fill="#F3A03B" opacity="0.9"/>
<circle cx="490.0" cy="124.1" r="1.6" fill="#E6E1D6" opacity="0.5"/>
<circle cx="751.7" cy="79.6" r="1.6" fill="#E6E1D6" opacity="0.5"/>
<circle cx="718.9" cy="47.8" r="1.6" fill="#E6E1D6" opacity="0.5"/>
<circle cx="689.1" cy="9.2" r="1.6" fill="#E6E1D6" opacity="0.5"/>
<circle cx="327.1" cy="497.5" r="1.6" fill="#E6E1D6" opacity="0.5"/>
<circle cx="813.5" cy="297.7" r="1.6" fill="#E6E1D6" opacity="0.5"/>
<circle cx="718.2" cy="514.9" r="1.6" fill="#E6E1D6" opacity="0.5"/>
<circle cx="821.3" cy="372.8" r="1.6" fill="#E6E1D6" opacity="0.5"/>
<circle cx="667.1" cy="38.3" r="1.6" fill="#E6E1D6" opacity="0.5"/>
<circle cx="246.2" cy="311.7" r="1.6" fill="#E6E1D6" opacity="0.5"/>
<circle cx="410.8" cy="227.0" r="1.6" fill="#E6E1D6" opacity="0.5"/>
<circle cx="748.0" cy="321.6" r="1.6" fill="#E6E1D6" opacity="0.5"/>
<circle cx="780.0" cy="451.9" r="1.6" fill="#E6E1D6" opacity="0.5"/>
<circle cx="261.0" cy="254.0" r="1.6" fill="#E6E1D6" opacity="0.5"/>
<circle cx="284.3" cy="224.7" r="1.6" fill="#E6E1D6" opacity="0.5"/>
<circle cx="270.0" cy="520.0" r="1.6" fill="#E6E1D6" opacity="0.5"/>
<circle cx="312.2" cy="581.3" r="1.6" fill="#E6E1D6" opacity="0.5"/>
<circle cx="882.8" cy="395.6" r="1.6" fill="#E6E1D6" opacity="0.5"/>
<circle cx="206.1" cy="229.2" r="1.6" fill="#E6E1D6" opacity="0.5"/>
<circle cx="849.4" cy="488.4" r="1.6" fill="#E6E1D6" opacity="0.5"/>
<circle cx="609.1" cy="77.9" r="1.6" fill="#E6E1D6" opacity="0.5"/>
<circle cx="792.3" cy="537.3" r="1.6" fill="#E6E1D6" opacity="0.5"/>
<circle cx="415.1" cy="629.7" r="1.6" fill="#E6E1D6" opacity="0.5"/>
<circle cx="258.9" cy="455.9" r="1.6" fill="#E6E1D6" opacity="0.5"/>
<circle cx="284.7" cy="477.9" r="1.6" fill="#E6E1D6" opacity="0.5"/>
<circle cx="743.1" cy="12.0" r="1.6" fill="#E6E1D6" opacity="0.5"/>
<circle cx="185.5" cy="341.8" r="1.6" fill="#E6E1D6" opacity="0.5"/>
<circle cx="339.4" cy="243.6" r="1.6" fill="#E6E1D6" opacity="0.5"/>
<circle cx="285.7" cy="179.3" r="1.6" fill="#E6E1D6" opacity="0.5"/>
<circle cx="647.8" cy="80.9" r="1.6" fill="#E6E1D6" opacity="0.5"/>
<circle cx="843.4" cy="326.1" r="1.6" fill="#E6E1D6" opacity="0.5"/>
<circle cx="877.6" cy="354.3" r="1.6" fill="#E6E1D6" opacity="0.5"/>
<circle cx="172.9" cy="247.3" r="1.6" fill="#E6E1D6" opacity="0.5"/>
<circle cx="668.3" cy="576.7" r="1.6" fill="#E6E1D6" opacity="0.5"/>
<circle cx="139.4" cy="216.6" r="1.6" fill="#E6E1D6" opacity="0.5"/>
<circle cx="773.2" cy="37.2" r="1.6" fill="#E6E1D6" opacity="0.5"/>
<circle cx="240.0" cy="215.6" r="1.6" fill="#E6E1D6" opacity="0.5"/>
<circle cx="695.0" cy="547.1" r="1.6" fill="#E6E1D6" opacity="0.5"/>
<circle cx="849.1" cy="190.6" r="1.6" fill="#E6E1D6" opacity="0.5"/>
<circle cx="223.2" cy="283.5" r="1.6" fill="#E6E1D6" opacity="0.5"/>
<circle cx="429.7" cy="148.3" r="1.6" fill="#E6E1D6" opacity="0.5"/>
<circle cx="131.8" cy="301.3" r="1.6" fill="#E6E1D6" opacity="0.5"/>
<circle cx="334.0" cy="465.1" r="1.6" fill="#E6E1D6" opacity="0.5"/>
<circle cx="395.0" cy="568.0" r="1.6" fill="#E6E1D6" opacity="0.5"/>
<circle cx="557.2" cy="13.1" r="1.6" fill="#E6E1D6" opacity="0.5"/>
<circle cx="488.4" cy="28.0" r="1.6" fill="#E6E1D6" opacity="0.5"/>
<circle cx="453.0" cy="109.2" r="3" fill="#F3A03B" opacity="0.9"/>
<circle cx="371.1" cy="219.0" r="1.6" fill="#E6E1D6" opacity="0.5"/>
<circle cx="815.3" cy="51.5" r="1.6" fill="#E6E1D6" opacity="0.5"/>
<circle cx="857.7" cy="36.6" r="1.6" fill="#E6E1D6" opacity="0.5"/>
<circle cx="648.7" cy="509.5" r="1.6" fill="#E6E1D6" opacity="0.5"/>
<circle cx="910.0" cy="28.8" r="1.6" fill="#E6E1D6" opacity="0.5"/>
<circle cx="313.8" cy="207.5" r="1.6" fill="#E6E1D6" opacity="0.5"/>
<circle cx="836.5" cy="268.0" r="1.6" fill="#E6E1D6" opacity="0.5"/>
<circle cx="105.8" cy="160.5" r="1.6" fill="#E6E1D6" opacity="0.5"/>
<circle cx="924.5" cy="437.4" r="1.6" fill="#E6E1D6" opacity="0.5"/>
<circle cx="761.7" cy="552.5" r="1.6" fill="#E6E1D6" opacity="0.5"/>
<circle cx="175.2" cy="209.9" r="1.6" fill="#E6E1D6" opacity="0.5"/>
<circle cx="878.2" cy="69.7" r="1.6" fill="#E6E1D6" opacity="0.5"/>
<circle cx="473.3" cy="60.8" r="1.6" fill="#E6E1D6" opacity="0.5"/>
<circle cx="852.5" cy="523.9" r="1.6" fill="#E6E1D6" opacity="0.5"/>
<circle cx="861.6" cy="425.9" r="1.6" fill="#E6E1D6" opacity="0.5"/>
<circle cx="379.8" cy="615.8" r="1.6" fill="#E6E1D6" opacity="0.5"/>
<circle cx="213.7" cy="481.6" r="1.6" fill="#E6E1D6" opacity="0.5"/>
<circle cx="142.7" cy="266.4" r="1.6" fill="#E6E1D6" opacity="0.5"/>
<circle cx="178.7" cy="166.2" r="1.6" fill="#E6E1D6" opacity="0.5"/>
<circle cx="842.1" cy="93.1" r="1.6" fill="#E6E1D6" opacity="0.5"/>
<circle cx="174.7" cy="480.9" r="1.6" fill="#E6E1D6" opacity="0.5"/>
<circle cx="780.7" cy="206.1" r="1.6" fill="#E6E1D6" opacity="0.5"/>
<circle cx="944.0" cy="39.7" r="1.6" fill="#E6E1D6" opacity="0.5"/>
<circle cx="846.8" cy="394.2" r="1.6" fill="#E6E1D6" opacity="0.5"/>
<circle cx="875.7" cy="296.6" r="1.6" fill="#E6E1D6" opacity="0.5"/>
<circle cx="638.6" cy="4.5" r="1.6" fill="#E6E1D6" opacity="0.5"/>
<circle cx="434.3" cy="11.1" r="1.6" fill="#E6E1D6" opacity="0.5"/>
<circle cx="956.3" cy="1.6" r="1.6" fill="#E6E1D6" opacity="0.5"/>
<circle cx="91.8" cy="279.0" r="1.6" fill="#E6E1D6" opacity="0.5"/>
<circle cx="891.6" cy="120.6" r="1.6" fill="#E6E1D6" opacity="0.5"/>
<circle cx="883.2" cy="510.1" r="1.6" fill="#E6E1D6" opacity="0.5"/>
<circle cx="888.8" cy="2.5" r="1.6" fill="#E6E1D6" opacity="0.5"/>
<circle cx="237.6" cy="173.6" r="1.6" fill="#E6E1D6" opacity="0.5"/>
<circle cx="870.6" cy="165.1" r="1.6" fill="#E6E1D6" opacity="0.5"/>
<circle cx="911.9" cy="359.1" r="1.6" fill="#E6E1D6" opacity="0.5"/>
<circle cx="720.1" cy="348.8" r="1.6" fill="#E6E1D6" opacity="0.5"/>
<circle cx="335.2" cy="102.7" r="1.6" fill="#E6E1D6" opacity="0.5"/>
<circle cx="781.0" cy="594.5" r="1.6" fill="#E6E1D6" opacity="0.5"/>
<circle cx="721.5" cy="568.2" r="1.6" fill="#E6E1D6" opacity="0.5"/>
<circle cx="935.2" cy="116.8" r="1.6" fill="#E6E1D6" opacity="0.5"/>
<circle cx="125.9" cy="345.3" r="1.6" fill="#E6E1D6" opacity="0.5"/>
<circle cx="853.5" cy="2.1" r="1.6" fill="#E6E1D6" opacity="0.5"/>
<circle cx="393.9" cy="60.3" r="1.6" fill="#E6E1D6" opacity="0.5"/>
<circle cx="900.4" cy="539.7" r="1.6" fill="#E6E1D6" opacity="0.5"/>
<circle cx="917.3" cy="316.8" r="3" fill="#F3A03B" opacity="0.9"/>
<circle cx="995.6" cy="22.9" r="1.6" fill="#E6E1D6" opacity="0.5"/>
<circle cx="340.5" cy="607.7" r="1.6" fill="#E6E1D6" opacity="0.5"/>
<circle cx="966.4" cy="434.8" r="1.6" fill="#E6E1D6" opacity="0.5"/>
<circle cx="912.3" cy="154.7" r="1.6" fill="#E6E1D6" opacity="0.5"/>
<circle cx="741.6" cy="626.8" r="1.6" fill="#E6E1D6" opacity="0.5"/>
<circle cx="282.0" cy="84.0" r="1.6" fill="#E6E1D6" opacity="0.5"/>
<circle cx="855.4" cy="583.3" r="1.6" fill="#E6E1D6" opacity="0.5"/>
<circle cx="823.7" cy="124.7" r="1.6" fill="#E6E1D6" opacity="0.5"/>
<circle cx="811.2" cy="572.8" r="1.6" fill="#E6E1D6" opacity="0.5"/>
<circle cx="989.8" cy="473.0" r="1.6" fill="#E6E1D6" opacity="0.5"/>
<circle cx="420.8" cy="86.0" r="1.6" fill="#E6E1D6" opacity="0.5"/>
<circle cx="896.5" cy="457.4" r="1.6" fill="#E6E1D6" opacity="0.5"/>
<circle cx="655.6" cy="609.6" r="1.6" fill="#E6E1D6" opacity="0.5"/>
<circle cx="813.8" cy="16.8" r="1.6" fill="#E6E1D6" opacity="0.5"/>
<circle cx="911.4" cy="72.0" r="1.6" fill="#E6E1D6" opacity="0.5"/>
<circle cx="386.1" cy="115.5" r="1.6" fill="#E6E1D6" opacity="0.5"/>
<circle cx="210.6" cy="536.2" r="1.6" fill="#E6E1D6" opacity="0.5"/>
<circle cx="1026.2" cy="72.4" r="1.6" fill="#E6E1D6" opacity="0.5"/>
<circle cx="962.2" cy="97.1" r="1.6" fill="#E6E1D6" opacity="0.5"/>
<circle cx="132.3" cy="487.0" r="1.6" fill="#E6E1D6" opacity="0.5"/>
<circle cx="787.7" cy="69.6" r="1.6" fill="#E6E1D6" opacity="0.5"/>
<circle cx="363.0" cy="74.4" r="1.6" fill="#E6E1D6" opacity="0.5"/>
<circle cx="902.3" cy="237.1" r="1.6" fill="#E6E1D6" opacity="0.5"/>
<circle cx="1029.1" cy="23.5" r="1.6" fill="#E6E1D6" opacity="0.5"/>
<circle cx="939.6" cy="525.3" r="1.6" fill="#E6E1D6" opacity="0.5"/>
<circle cx="815.4" cy="611.3" r="1.6" fill="#E6E1D6" opacity="0.5"/>
<circle cx="905.9" cy="190.0" r="1.6" fill="#E6E1D6" opacity="0.5"/>
<circle cx="701.4" cy="623.4" r="1.6" fill="#E6E1D6" opacity="0.5"/>
<circle cx="970.7" cy="60.4" r="1.6" fill="#E6E1D6" opacity="0.5"/>
<circle cx="1068.4" cy="35.9" r="1.6" fill="#E6E1D6" opacity="0.5"/>
<circle cx="324.9" cy="66.2" r="1.6" fill="#E6E1D6" opacity="0.5"/>
<circle cx="857.0" cy="125.4" r="1.6" fill="#E6E1D6" opacity="0.5"/>
<circle cx="98.6" cy="365.2" r="1.6" fill="#E6E1D6" opacity="0.5"/>
<circle cx="1056.4" cy="2.0" r="1.6" fill="#E6E1D6" opacity="0.5"/>
<circle cx="956.7" cy="325.7" r="1.6" fill="#E6E1D6" opacity="0.5"/>
<circle cx="283.3" cy="141.2" r="1.6" fill="#E6E1D6" opacity="0.5"/>
<circle cx="602.5" cy="627.4" r="1.6" fill="#E6E1D6" opacity="0.5"/>
<circle cx="362.0" cy="25.2" r="1.6" fill="#E6E1D6" opacity="0.5"/>
<circle cx="135.3" cy="386.0" r="1.6" fill="#E6E1D6" opacity="0.5"/>
<circle cx="244.5" cy="495.8" r="1.6" fill="#E6E1D6" opacity="0.5"/>
<circle cx="961.5" cy="153.2" r="1.6" fill="#E6E1D6" opacity="0.5"/>
<circle cx="105.4" cy="237.7" r="1.6" fill="#E6E1D6" opacity="0.5"/>
<circle cx="122.1" cy="427.9" r="1.6" fill="#E6E1D6" opacity="0.5"/>
<circle cx="270.6" cy="47.9" r="1.6" fill="#E6E1D6" opacity="0.5"/>
<circle cx="427.3" cy="46.3" r="1.6" fill="#E6E1D6" opacity="0.5"/>
<circle cx="62.2" cy="264.3" r="1.6" fill="#E6E1D6" opacity="0.5"/>
<circle cx="942.8" cy="400.7" r="1.6" fill="#E6E1D6" opacity="0.5"/>
<circle cx="1015.6" cy="433.6" r="1.6" fill="#E6E1D6" opacity="0.5"/>
<circle cx="1040.0" cy="123.8" r="1.6" fill="#E6E1D6" opacity="0.5"/>
<circle cx="778.0" cy="1.2" r="1.6" fill="#E6E1D6" opacity="0.5"/>
<circle cx="1097.5" cy="0.3" r="1.6" fill="#E6E1D6" opacity="0.5"/>
<circle cx="916.2" cy="499.5" r="1.6" fill="#E6E1D6" opacity="0.5"/>
<circle cx="954.9" cy="226.7" r="1.6" fill="#E6E1D6" opacity="0.5"/>
<circle cx="953.1" cy="477.4" r="1.6" fill="#E6E1D6" opacity="0.5"/>
<circle cx="986.7" cy="130.3" r="1.6" fill="#E6E1D6" opacity="0.5"/>
<circle cx="292.9" cy="615.9" r="1.6" fill="#E6E1D6" opacity="0.5"/>
<circle cx="78.0" cy="421.4" r="1.6" fill="#E6E1D6" opacity="0.5"/>
<circle cx="237.2" cy="128.1" r="1.6" fill="#E6E1D6" opacity="0.5"/>
<circle cx="951.2" cy="185.0" r="1.6" fill="#E6E1D6" opacity="0.5"/>
<circle cx="795.1" cy="175.9" r="1.6" fill="#E6E1D6" opacity="0.5"/>
<circle cx="81.0" cy="318.8" r="1.6" fill="#E6E1D6" opacity="0.5"/>
<circle cx="170.6" cy="118.8" r="1.6" fill="#E6E1D6" opacity="0.5"/>
<circle cx="149.5" cy="144.9" r="1.6" fill="#E6E1D6" opacity="0.5"/>
<circle cx="264.8" cy="560.8" r="1.6" fill="#E6E1D6" opacity="0.5"/>
<circle cx="255.3" cy="602.2" r="1.6" fill="#E6E1D6" opacity="0.5"/>
<circle cx="63.6" cy="362.6" r="1.6" fill="#E6E1D6" opacity="0.5"/>
<circle cx="995.8" cy="167.9" r="1.6" fill="#E6E1D6" opacity="0.5"/>
<circle cx="937.9" cy="280.8" r="1.6" fill="#E6E1D6" opacity="0.5"/>
<circle cx="1048.4" cy="409.5" r="1.6" fill="#E6E1D6" opacity="0.5"/>
<circle cx="137.6" cy="182.7" r="1.6" fill="#E6E1D6" opacity="0.5"/>
<circle cx="38.5" cy="340.5" r="1.6" fill="#E6E1D6" opacity="0.5"/>
<circle cx="205.5" cy="193.4" r="1.6" fill="#E6E1D6" opacity="0.5"/>
<circle cx="995.6" cy="234.9" r="1.6" fill="#E6E1D6" opacity="0.5"/>
<circle cx="222.5" cy="584.3" r="1.6" fill="#E6E1D6" opacity="0.5"/>
<circle cx="1054.4" cy="452.2" r="1.6" fill="#E6E1D6" opacity="0.5"/>
<circle cx="89.1" cy="481.9" r="1.6" fill="#E6E1D6" opacity="0.5"/>
<circle cx="122.3" cy="116.7" r="1.6" fill="#E6E1D6" opacity="0.5"/>
<circle cx="113.3" cy="515.6" r="1.6" fill="#E6E1D6" opacity="0.5"/>
<circle cx="58.9" cy="217.2" r="1.6" fill="#E6E1D6" opacity="0.5"/>
<circle cx="969.8" cy="259.8" r="1.6" fill="#E6E1D6" opacity="0.5"/>
<circle cx="522.3" cy="1.0" r="1.6" fill="#E6E1D6" opacity="0.5"/>
<circle cx="1015.4" cy="297.4" r="1.6" fill="#E6E1D6" opacity="0.5"/>
<circle cx="88.6" cy="199.3" r="1.6" fill="#E6E1D6" opacity="0.5"/>
<circle cx="341.2" cy="137.1" r="3" fill="#F3A03B" opacity="0.9"/>
<circle cx="236.9" cy="77.3" r="1.6" fill="#E6E1D6" opacity="0.5"/>
<circle cx="214.4" cy="103.0" r="1.6" fill="#E6E1D6" opacity="0.5"/>
<circle cx="1017.5" cy="261.7" r="1.6" fill="#E6E1D6" opacity="0.5"/>
<circle cx="985.0" cy="389.9" r="1.6" fill="#E6E1D6" opacity="0.5"/>
<circle cx="854.9" cy="621.6" r="1.6" fill="#E6E1D6" opacity="0.5"/>
<circle cx="986.0" cy="529.7" r="1.6" fill="#E6E1D6" opacity="0.5"/>
<circle cx="195.2" cy="73.6" r="1.6" fill="#E6E1D6" opacity="0.5"/>
<circle cx="139.2" cy="70.1" r="1.6" fill="#E6E1D6" opacity="0.5"/>
<circle cx="1111.6" cy="31.4" r="1.6" fill="#E6E1D6" opacity="0.5"/>
<circle cx="1125.6" cy="76.4" r="1.6" fill="#E6E1D6" opacity="0.5"/>
<circle cx="205.9" cy="139.1" r="1.6" fill="#E6E1D6" opacity="0.5"/>
<circle cx="1175.8" cy="32.9" r="1.6" fill="#E6E1D6" opacity="0.5"/>
<circle cx="63.1" cy="155.0" r="1.6" fill="#E6E1D6" opacity="0.5"/>
<circle cx="995.8" cy="345.0" r="1.6" fill="#E6E1D6" opacity="0.5"/>
<circle cx="974.1" cy="567.7" r="1.6" fill="#E6E1D6" opacity="0.5"/>
<circle cx="46.1" cy="305.5" r="1.6" fill="#E6E1D6" opacity="0.5"/>
<circle cx="151.7" cy="520.5" r="1.6" fill="#E6E1D6" opacity="0.5"/>
<circle cx="9.1" cy="155.8" r="1.6" fill="#E6E1D6" opacity="0.5"/>
<circle cx="221.1" cy="621.3" r="1.6" fill="#E6E1D6" opacity="0.5"/>
<circle cx="905.6" cy="620.8" r="1.6" fill="#E6E1D6" opacity="0.5"/>
<circle cx="1024.0" cy="483.6" r="1.6" fill="#E6E1D6" opacity="0.5"/>
<circle cx="167.4" cy="42.4" r="1.6" fill="#E6E1D6" opacity="0.5"/>
<circle cx="1091.5" cy="67.8" r="1.6" fill="#E6E1D6" opacity="0.5"/>
<circle cx="128.0" cy="546.9" r="1.6" fill="#E6E1D6" opacity="0.5"/>
<circle cx="927.2" cy="574.6" r="1.6" fill="#E6E1D6" opacity="0.5"/>
<circle cx="74.7" cy="539.1" r="1.6" fill="#E6E1D6" opacity="0.5"/>
<circle cx="80.2" cy="43.4" r="1.6" fill="#E6E1D6" opacity="0.5"/>
<circle cx="1105.7" cy="478.3" r="1.6" fill="#E6E1D6" opacity="0.5"/>
<circle cx="328.1" cy="15.8" r="1.6" fill="#E6E1D6" opacity="0.5"/>
<circle cx="304.2" cy="39.9" r="1.6" fill="#E6E1D6" opacity="0.5"/>
<circle cx="1063.5" cy="251.3" r="1.6" fill="#E6E1D6" opacity="0.5"/>
<circle cx="1036.6" cy="188.2" r="1.6" fill="#E6E1D6" opacity="0.5"/>
<circle cx="186.7" cy="567.0" r="1.6" fill="#E6E1D6" opacity="0.5"/>
<circle cx="21.6" cy="236.4" r="1.6" fill="#E6E1D6" opacity="0.5"/>
<circle cx="394.5" cy="9.3" r="1.6" fill="#E6E1D6" opacity="0.5"/>
<circle cx="14.3" cy="293.4" r="1.6" fill="#E6E1D6" opacity="0.5"/>
<circle cx="1157.4" cy="463.3" r="1.6" fill="#E6E1D6" opacity="0.5"/>
<circle cx="1111.8" cy="421.3" r="1.6" fill="#E6E1D6" opacity="0.5"/>
<circle cx="980.0" cy="299.3" r="1.6" fill="#E6E1D6" opacity="0.5"/>
<circle cx="1149.1" cy="11.6" r="1.6" fill="#E6E1D6" opacity="0.5"/>
<circle cx="945.0" cy="357.3" r="1.6" fill="#E6E1D6" opacity="0.5"/>
<circle cx="1064.7" cy="302.4" r="1.6" fill="#E6E1D6" opacity="0.5"/>
<circle cx="219.7" cy="12.6" r="1.6" fill="#E6E1D6" opacity="0.5"/>
<circle cx="4.0" cy="356.5" r="1.6" fill="#E6E1D6" opacity="0.5"/>
<circle cx="1078.5" cy="362.1" r="1.6" fill="#E6E1D6" opacity="0.5"/>
<circle cx="1134.3" cy="365.9" r="1.6" fill="#E6E1D6" opacity="0.5"/>
<circle cx="9.9" cy="201.3" r="1.6" fill="#E6E1D6" opacity="0.5"/>
<circle cx="227.3" cy="44.8" r="1.6" fill="#E6E1D6" opacity="0.5"/>
<circle cx="1091.5" cy="111.0" r="1.6" fill="#E6E1D6" opacity="0.5"/>
<circle cx="1145.0" cy="108.7" r="1.6" fill="#E6E1D6" opacity="0.5"/>
<circle cx="33.5" cy="419.4" r="1.6" fill="#E6E1D6" opacity="0.5"/>
<circle cx="277.5" cy="1.4" r="1.6" fill="#E6E1D6" opacity="0.5"/>
<circle cx="1077.5" cy="507.4" r="1.6" fill="#E6E1D6" opacity="0.5"/>
<circle cx="1042.8" cy="340.6" r="1.6" fill="#E6E1D6" opacity="0.5"/>
<circle cx="1024.1" cy="565.8" r="1.6" fill="#E6E1D6" opacity="0.5"/>
<circle cx="1018.3" cy="371.1" r="1.6" fill="#E6E1D6" opacity="0.5"/>
<circle cx="163.8" cy="597.3" r="1.6" fill="#E6E1D6" opacity="0.5"/>
<circle cx="39.9" cy="179.5" r="1.6" fill="#E6E1D6" opacity="0.5"/>
<circle cx="1103.1" cy="328.0" r="1.6" fill="#E6E1D6" opacity="0.5"/>
<circle cx="22.7" cy="121.5" r="1.6" fill="#E6E1D6" opacity="0.5"/>
<circle cx="1139.8" cy="160.8" r="1.6" fill="#E6E1D6" opacity="0.5"/>
<circle cx="30.8" cy="383.8" r="1.6" fill="#E6E1D6" opacity="0.5"/>
<circle cx="1067.3" cy="146.1" r="1.6" fill="#E6E1D6" opacity="0.5"/>
<circle cx="114.7" cy="579.7" r="1.6" fill="#E6E1D6" opacity="0.5"/>
<circle cx="40.1" cy="462.4" r="1.6" fill="#E6E1D6" opacity="0.5"/>
<circle cx="1006.6" cy="101.0" r="1.6" fill="#E6E1D6" opacity="0.5"/>
<circle cx="1177.3" cy="79.6" r="1.6" fill="#E6E1D6" opacity="0.5"/>
<circle cx="1112.3" cy="186.1" r="1.6" fill="#E6E1D6" opacity="0.5"/>
<circle cx="1178.0" cy="126.1" r="1.6" fill="#E6E1D6" opacity="0.5"/>
<circle cx="17.1" cy="81.8" r="1.6" fill="#E6E1D6" opacity="0.5"/>
<circle cx="1166.9" cy="400.2" r="1.6" fill="#E6E1D6" opacity="0.5"/>
<circle cx="1141.0" cy="514.8" r="1.6" fill="#E6E1D6" opacity="0.5"/>
<circle cx="55.7" cy="117.8" r="1.6" fill="#E6E1D6" opacity="0.5"/>
<circle cx="1147.7" cy="51.8" r="1.6" fill="#E6E1D6" opacity="0.5"/>
<circle cx="960.8" cy="619.0" r="1.6" fill="#E6E1D6" opacity="0.5"/>
<circle cx="1084.3" cy="401.2" r="1.6" fill="#E6E1D6" opacity="0.5"/>
<circle cx="996.1" cy="606.7" r="1.6" fill="#E6E1D6" opacity="0.5"/>
<circle cx="89.9" cy="89.7" r="1.6" fill="#E6E1D6" opacity="0.5"/>
<circle cx="120.6" cy="41.1" r="1.6" fill="#E6E1D6" opacity="0.5"/>
<circle cx="1168.8" cy="198.9" r="1.6" fill="#E6E1D6" opacity="0.5"/>
<circle cx="1059.7" cy="582.4" r="1.6" fill="#E6E1D6" opacity="0.5"/>
<circle cx="1190.3" cy="485.7" r="1.6" fill="#E6E1D6" opacity="0.5"/>
<circle cx="1078.0" cy="549.4" r="1.6" fill="#E6E1D6" opacity="0.5"/>
<circle cx="44.1" cy="33.7" r="1.6" fill="#E6E1D6" opacity="0.5"/>
<circle cx="50.2" cy="73.9" r="1.6" fill="#E6E1D6" opacity="0.5"/>
<circle cx="1078.0" cy="209.6" r="1.6" fill="#E6E1D6" opacity="0.5"/>
<circle cx="1108.1" cy="525.2" r="1.6" fill="#E6E1D6" opacity="0.5"/>
<circle cx="37.5" cy="499.1" r="1.6" fill="#E6E1D6" opacity="0.5"/>
<circle cx="1185.2" cy="359.5" r="1.6" fill="#E6E1D6" opacity="0.5"/>
<circle cx="893.5" cy="586.3" r="1.6" fill="#E6E1D6" opacity="0.5"/>
<circle cx="1091.4" cy="274.5" r="1.6" fill="#E6E1D6" opacity="0.5"/>
<circle cx="1026.9" cy="620.9" r="1.6" fill="#E6E1D6" opacity="0.5"/>
<circle cx="94.9" cy="10.6" r="1.6" fill="#E6E1D6" opacity="0.5"/>
<circle cx="1140.3" cy="317.8" r="1.6" fill="#E6E1D6" opacity="0.5"/>
<circle cx="55.7" cy="2.5" r="1.6" fill="#E6E1D6" opacity="0.5"/>
<circle cx="1029.3" cy="517.5" r="1.6" fill="#E6E1D6" opacity="0.5"/>
<circle cx="1112.2" cy="592.1" r="1.6" fill="#E6E1D6" opacity="0.5"/>
<circle cx="1.9" cy="52.5" r="1.6" fill="#E6E1D6" opacity="0.5"/>
<circle cx="1075.0" cy="622.7" r="1.6" fill="#E6E1D6" opacity="0.5"/>
<circle cx="1060.8" cy="90.1" r="1.6" fill="#E6E1D6" opacity="0.5"/>
<circle cx="1141.6" cy="549.9" r="1.6" fill="#E6E1D6" opacity="0.5"/>
<circle cx="1034.6" cy="222.6" r="1.6" fill="#E6E1D6" opacity="0.5"/>
<circle cx="1197.5" cy="176.1" r="1.6" fill="#E6E1D6" opacity="0.5"/>
<circle cx="5.8" cy="469.8" r="1.6" fill="#E6E1D6" opacity="0.5"/>
<circle cx="34.3" cy="556.0" r="1.6" fill="#E6E1D6" opacity="0.5"/>
<circle cx="77.4" cy="601.9" r="1.6" fill="#E6E1D6" opacity="0.5"/>
<circle cx="1197.3" cy="430.8" r="1.6" fill="#E6E1D6" opacity="0.5"/>
<circle cx="1170.7" cy="592.8" r="1.6" fill="#E6E1D6" opacity="0.5"/>
<circle cx="1188.0" cy="1.6" r="1.6" fill="#E6E1D6" opacity="0.5"/>
<circle cx="1195.7" cy="314.3" r="1.6" fill="#E6E1D6" opacity="0.5"/>
<circle cx="1124.2" cy="281.0" r="1.6" fill="#E6E1D6" opacity="0.5"/>
<circle cx="1160.3" cy="280.2" r="1.6" fill="#E6E1D6" opacity="0.5"/>
<circle cx="13.8" cy="2.2" r="1.6" fill="#E6E1D6" opacity="0.5"/>
<circle cx="1174.7" cy="526.7" r="1.6" fill="#E6E1D6" opacity="0.5"/>
<circle cx="152.8" cy="3.5" r="1.6" fill="#E6E1D6" opacity="0.5"/>
<circle cx="1118.0" cy="235.8" r="1.6" fill="#E6E1D6" opacity="0.5"/>
<circle cx="1171.0" cy="248.9" r="1.6" fill="#E6E1D6" opacity="0.5"/>
<circle cx="87.6" cy="126.3" r="1.6" fill="#E6E1D6" opacity="0.5"/>
<circle cx="1191.9" cy="618.7" r="1.6" fill="#E6E1D6" opacity="0.5"/>
<circle cx="1150.0" cy="628.1" r="1.6" fill="#E6E1D6" opacity="0.5"/>
<circle cx="905.1" cy="273.9" r="1.6" fill="#E6E1D6" opacity="0.5"/>
<circle cx="0.3" cy="416.4" r="1.6" fill="#E6E1D6" opacity="0.5"/>
<circle cx="1199.3" cy="548.9" r="1.6" fill="#E6E1D6" opacity="0.5"/>
<circle cx="11.8" cy="523.4" r="1.6" fill="#E6E1D6" opacity="0.5"/>
<circle cx="1104.7" cy="149.7" r="1.6" fill="#E6E1D6" opacity="0.5"/>
<circle cx="136.7" cy="629.2" r="1.6" fill="#E6E1D6" opacity="0.5"/>
<circle cx="18.1" cy="611.7" r="1.6" fill="#E6E1D6" opacity="0.5"/>
<circle cx="186.3" cy="15.3" r="1.6" fill="#E6E1D6" opacity="0.5"/>
<path d="M363.6 578.3 Q314.5 325.9 453.0 109.2" fill="none" stroke="#F3A03B" stroke-width="1.2" opacity="0.7"/>
<path d="M560.9 516.9 Q323.3 491.8 168.5 309.7" fill="none" stroke="#F3A03B" stroke-width="1.2" opacity="0.7"/>
<path d="M785.3 241.3 Q617.6 430.4 365.6 451.7" fill="none" stroke="#F3A03B" stroke-width="1.2" opacity="0.7"/>
<path d="M542.7 607.8 Q347.8 412.8 341.2 137.1" fill="none" stroke="#F3A03B" stroke-width="1.2" opacity="0.7"/>
<path d="M576.7 87.7 Q792.8 134.1 917.3 316.8" fill="none" stroke="#F3A03B" stroke-width="1.2" opacity="0.7"/>
<g font-family="JetBrains Mono, monospace" font-size="20" fill="#62E0C8" opacity="0.9" letter-spacing="2">
  <text x="80" y="110">§ 00 / BOOTING PERCEPTION</text>
</g>
<g font-family="Inter, sans-serif" font-size="72" font-weight="600" fill="#E6E1D6">
  <text x="80" y="220">Cyrille Tabe</text>
</g>
<g font-family="Inter, sans-serif" font-size="34" font-weight="400" fill="#E6E1D6" opacity="0.85">
  <text x="80" y="290">I build machines that perceive, decide, and act.</text>
</g>
<g font-family="JetBrains Mono, monospace" font-size="16" fill="#8E8A82" letter-spacing="2">
  <text x="80" y="570">MONTRÉAL · ROBOTICS SOFTWARE ENGINEER</text>
</g>
</svg>